HIERARCHY
ROOT Hips
{
	OFFSET 0.00000 0.00000 0.00000
	CHANNELS 6 Xposition Yposition Zposition Zrotation Yrotation Xrotation 
	JOINT LHipJoint
	{
		OFFSET 0 0 0
		CHANNELS 3 Zrotation Yrotation Xrotation
		JOINT LeftUpLeg
		{
			OFFSET 1.38691 -1.89057 0.78360
			CHANNELS 3 Zrotation Yrotation Xrotation
			JOINT LeftLeg
			{
				OFFSET 2.59731 -7.13606 0.00000
				CHANNELS 3 Zrotation Yrotation Xrotation
				JOINT LeftFoot
				{
					OFFSET 2.70078 -7.42033 0.00000
					CHANNELS 3 Zrotation Yrotation Xrotation
					JOINT LeftToeBase
					{
						OFFSET 0.16751 -0.46024 2.68862
						CHANNELS 3 Zrotation Yrotation Xrotation
						End Site
						{
							OFFSET 0.00000 -0.00000 1.37057
						}
					}
				}
			}
		}
	}
	JOINT RHipJoint
	{
		OFFSET 0 0 0
		CHANNELS 3 Zrotation Yrotation Xrotation
		JOINT RightUpLeg
		{
			OFFSET -1.38190 -1.89056 0.78359
			CHANNELS 3 Zrotation Yrotation Xrotation
			JOINT RightLeg
			{
				OFFSET -2.57785 -7.08258 0.00000
				CHANNELS 3 Zrotation Yrotation Xrotation
				JOINT RightFoot
				{
					OFFSET -2.77908 -7.63547 0.00000
					CHANNELS 3 Zrotation Yrotation Xrotation
					JOINT RightToeBase
					{
						OFFSET -0.17921 -0.49237 2.62360
						CHANNELS 3 Zrotation Yrotation Xrotation
						End Site
						{
							OFFSET -0.00000 -0.00000 1.34085
						}
					}
				}
			}
		}
	}
	JOINT LowerBack
	{
		OFFSET 0 0 0
		CHANNELS 3 Zrotation Yrotation Xrotation
		JOINT Spine
		{
			OFFSET -0.10749 2.04110 -0.22549
			CHANNELS 3 Zrotation Yrotation Xrotation
			JOINT Spine1
			{
				OFFSET 0.01213 2.05840 0.00691
				CHANNELS 3 Zrotation Yrotation Xrotation
				JOINT Neck
				{
					OFFSET 0 0 0
					CHANNELS 3 Zrotation Yrotation Xrotation
					JOINT Neck1
					{
						OFFSET 0.06585 1.81215 0.35449
						CHANNELS 3 Zrotation Yrotation Xrotation
						JOINT Head
						{
							OFFSET -0.04315 1.87555 -0.27307
							CHANNELS 3 Zrotation Yrotation Xrotation
							End Site
							{
								OFFSET -0.01775 1.89740 -0.13294
							}
						}
					}
				}
				JOINT LeftShoulder
				{
					OFFSET 0 0 0
					CHANNELS 3 Zrotation Yrotation Xrotation
					JOINT LeftArm
					{
						OFFSET 2.98012 1.63606 0.28888
						CHANNELS 3 Zrotation Yrotation Xrotation
						JOINT LeftForeArm
						{
							OFFSET 5.59864 -0.00000 -0.00000
							CHANNELS 3 Zrotation Yrotation Xrotation
							JOINT LeftHand
							{
								OFFSET 3.59542 -0.00000 -0.00000
								CHANNELS 3 Zrotation Yrotation Xrotation
								JOINT LeftFingerBase
								{
									OFFSET 0 0 0
									CHANNELS 3 Zrotation Yrotation Xrotation
									JOINT LeftHandIndex1
									{
										OFFSET 0.57201 -0.00000 -0.00000
										CHANNELS 3 Zrotation Yrotation Xrotation
										End Site
										{
											OFFSET 0.46117 -0.00000 -0.00000
										}
									}
								}
								JOINT LThumb
								{
									OFFSET 0 0 0
									CHANNELS 3 Zrotation Yrotation Xrotation
									End Site
									{
										OFFSET 0.46821 -0.00000 0.46821
									}
								}
							}
						}
					}
				}
				JOINT RightShoulder
				{
					OFFSET 0 0 0
					CHANNELS 3 Zrotation Yrotation Xrotation
					JOINT RightArm
					{
						OFFSET -3.08694 1.53706 0.36335
						CHANNELS 3 Zrotation Yrotation Xrotation
						JOINT RightForeArm
						{
							OFFSET -5.80940 -0.00000 -0.00000
							CHANNELS 3 Zrotation Yrotation Xrotation
							JOINT RightHand
							{
								OFFSET -3.66953 -0.00000 -0.00000
								CHANNELS 3 Zrotation Yrotation Xrotation
								JOINT RightFingerBase
								{
									OFFSET 0 0 0
									CHANNELS 3 Zrotation Yrotation Xrotation
									JOINT RightHandIndex1
									{
										OFFSET -0.57843 -0.00000 -0.00000
										CHANNELS 3 Zrotation Yrotation Xrotation
										End Site
										{
											OFFSET -0.46635 -0.00000 -0.00000
										}
									}
								}
								JOINT RThumb
								{
									OFFSET 0 0 0
									CHANNELS 3 Zrotation Yrotation Xrotation
									End Site
									{
										OFFSET -0.47347 -0.00000 0.47347
									}
								}
							}
						}
					}
				}
			}
		}
	}
}
MOTION
Frames: 10
Frame Time: .0083333
6.6363 16.5440 -12.1677 4.0968 14.3259 19.0714 0.0000 0.0000 0.0000 -15.7599 -13.9099 -18.0076 9.0419 16.8346 56.2350 -3.8450 -34.6304 -0.1775 0.2404 3.1552 8.7112 0.0000 0.0000 0.0000 -12.8361 23.1277 -78.4965 -16.3645 -19.6801 79.3158 1.1971 20.9853 -1.9010 -0.1901 2.8082 -7.7452 -6.4760 5.3415 24.2561 1.3769 5.5192 7.7084 3.5908 2.6839 -5.6391 -0.4489 -6.2709 -25.8573 2.6411 -9.6523 28.4816 -0.7316 -3.7303 14.2431 0.0000 -0.0000 0.0000 -70.3725 -16.5173 36.8112 28.3405 -39.4278 -10.3392 -0.0000 0.0000 -23.6690 27.9252 8.0631 4.2518 -7.1250 0.0000 -0.0000 0.9330 39.0871 -0.1359 0.0000 -0.0000 0.0000 48.6516 45.9586 10.6609 -16.7245 26.4931 -3.9636 0.0000 0.0000 9.2767 -37.0151 -10.3210 7.6931 7.1250 -0.0000 -0.0000 -9.0509 -42.6482 -0.5299
6.6223 16.4245 -11.8658 4.2927 14.5425 18.7876 0.0000 0.0000 0.0000 -15.8677 -13.4485 -16.3865 8.9819 16.7961 56.0277 -4.0337 -35.1444 0.4177 0.2397 3.1508 8.6989 0.0000 0.0000 0.0000 -13.2819 23.2753 -78.9559 -16.7379 -19.7429 80.4228 1.1894 20.8665 -1.7785 -0.1811 2.7407 -7.5578 -6.7173 5.3781 23.9449 1.2945 5.5268 7.5454 3.6467 2.6941 -5.6761 -0.5673 -6.3237 -25.7965 2.9348 -9.8030 28.8260 -0.6295 -3.7493 14.4136 -0.0000 0.0000 0.0000 -68.8979 -18.3899 36.1302 30.4937 -41.3128 -11.7342 -0.0000 0.0000 -25.3977 28.5103 7.1947 3.8918 -7.1250 0.0000 -0.0000 1.4767 38.1509 -0.2491 -0.0000 0.0000 0.0000 47.5125 44.6975 12.1281 -17.5478 27.5743 -4.3379 0.0000 0.0000 7.7295 -37.1686 -10.7406 8.0424 7.1250 -0.0000 -0.0000 -9.2160 -43.1798 -0.4178
6.6027 16.2874 -11.5593 4.5605 14.7931 18.5783 0.0000 0.0000 0.0000 -15.9485 -13.0905 -14.6938 8.9221 16.7574 55.8205 -4.3155 -35.8129 1.5327 0.2776 3.3886 9.3625 0.0000 0.0000 0.0000 -14.0322 23.3978 -79.6786 -17.2787 -19.8215 82.0206 1.1303 20.9918 -3.0070 -0.2655 3.3145 -9.1557 -7.0820 5.3427 23.6235 1.2203 5.4163 7.3465 3.8163 2.6494 -5.7429 -1.0246 -6.3507 -25.7046 3.5095 -9.8738 29.1642 -0.3422 -3.7312 14.6176 0.0000 -0.0000 0.0000 -67.2671 -20.3048 35.2858 33.1163 -43.4192 -13.5019 -0.0000 0.0000 -27.5996 29.7625 6.9011 3.9306 -7.1250 0.0000 -0.0000 2.5621 37.9058 -0.4478 0.0000 -0.0000 0.0000 46.4417 43.5733 13.8746 -18.3978 28.6635 -4.7385 0.0000 0.0000 5.6738 -37.1481 -10.9893 8.2178 7.1250 -0.0000 -0.0000 -9.2103 -43.4801 -0.3486
6.5814 16.1360 -11.2482 4.8400 15.1209 18.3824 0.0000 0.0000 0.0000 -16.0122 -12.7123 -12.9920 8.8558 16.7140 55.5899 -4.5476 -36.6440 1.5116 0.2430 3.1721 8.7583 0.0000 0.0000 0.0000 -14.7087 23.3611 -80.1859 -17.8142 -19.8851 83.5974 1.3779 22.2250 -1.5593 -0.0438 1.3504 -3.7134 -7.3851 5.2789 23.3601 1.1460 5.2795 7.1339 3.9546 2.5937 -5.8442 -1.4049 -6.3694 -25.5568 4.0060 -9.9274 29.3236 -0.0887 -3.7187 14.7212 -0.0000 0.0000 0.0000 -65.5074 -22.4141 34.2869 35.9913 -45.5072 -15.5163 -0.0000 0.0000 -29.1424 30.4720 6.5434 3.8359 -7.1250 0.0000 -0.0000 3.1756 37.5434 -0.5835 -0.0000 0.0000 0.0000 45.2793 42.5136 15.4458 -19.2129 29.6823 -5.1358 0.0000 0.0000 3.8617 -36.2162 -11.1160 8.0364 7.1250 -0.0000 -0.0000 -8.3467 -43.5098 -0.3093
6.5571 15.9713 -10.9356 5.1056 15.5089 18.2861 0.0000 0.0000 0.0000 -16.0141 -12.2601 -11.4090 8.7351 16.6342 55.1695 -4.7046 -37.3123 1.1258 0.1837 2.7607 7.6133 0.0000 0.0000 0.0000 -15.2557 22.9694 -81.1398 -18.3884 -19.9376 85.2833 1.3793 22.3204 -1.7504 -0.0924 1.9610 -5.3978 -7.6108 5.2149 23.1260 1.0233 5.1520 6.8705 3.9894 2.5457 -6.0060 -1.6659 -6.4022 -25.3854 4.4973 -10.0410 29.3420 0.1340 -3.7255 14.7523 0.0000 -0.0000 0.0000 -63.4288 -24.6826 33.3719 39.0850 -47.5183 -17.7614 -0.0000 0.0000 -29.9442 31.6021 6.3296 3.8804 -7.1250 0.0000 -0.0000 4.1430 37.3715 -0.7794 0.0000 -0.0000 0.0000 44.4943 41.4137 16.6850 -19.9924 30.6332 -5.5275 0.0000 0.0000 2.8702 -36.2616 -10.9870 7.9586 7.1250 -0.0000 -0.0000 -8.3842 -43.3600 -0.3419
6.5306 15.8441 -10.6051 5.3472 16.0475 18.2190 0.0000 0.0000 0.0000 -15.9181 -11.8041 -9.5476 8.4667 16.4520 54.2267 -4.9622 -37.8355 2.1699 0.2558 3.2543 8.9876 0.0000 0.0000 0.0000 -15.5343 22.3836 -82.0157 -18.9145 -19.9717 86.8249 1.3781 22.3830 -1.9075 -0.1077 2.1163 -5.8271 -7.9341 5.0184 22.8553 1.0346 4.8490 6.6531 4.2827 2.4116 -6.0926 -1.8639 -6.2710 -25.4201 4.6756 -9.8363 29.3724 0.2790 -3.6342 14.7913 0.0000 -0.0000 0.0000 -61.3463 -27.0218 31.9145 42.2197 -49.3314 -20.1070 -0.0000 0.0000 -29.9068 32.1021 6.7733 4.2317 -7.1250 0.0000 -0.0000 4.5754 37.9250 -0.7990 0.0000 -0.0000 0.0000 42.9769 40.6011 18.3527 -20.8514 31.6545 -5.9718 0.0000 0.0000 1.2953 -36.0564 -11.1264 7.9974 7.1250 -0.0000 -0.0000 -8.1982 -43.5013 -0.3054
6.5039 15.7544 -10.2625 5.4268 16.7287 18.1979 0.0000 0.0000 0.0000 -15.5906 -11.2910 -7.5954 8.0799 16.1777 52.8499 -5.0976 -38.1132 2.6990 0.2872 3.4464 9.5242 0.0000 0.0000 0.0000 -15.5523 21.7277 -82.9395 -19.4138 -19.9918 88.2859 1.2606 22.3889 -3.6769 -0.2400 3.1524 -8.7034 -7.8936 4.7772 22.6848 0.9674 4.5494 6.3284 4.2732 2.2839 -6.3159 -1.5446 -6.1229 -25.3282 4.4931 -9.6849 29.2568 0.1871 -3.5694 14.6811 0.0000 0.0000 0.0000 -58.7441 -29.3396 30.5476 45.4576 -50.9907 -22.5938 -0.0000 0.0000 -29.4152 32.5798 7.0850 4.5067 -7.1250 0.0000 -0.0000 4.9913 38.3264 -0.8227 0.0000 0.0000 0.0000 41.6606 39.6196 19.8754 -21.6947 32.6302 -6.4204 0.0000 0.0000 0.1485 -36.6399 -10.9076 8.0109 7.1250 -0.0000 -0.0000 -8.7327 -43.3134 -0.3665
6.4795 15.7055 -9.9029 5.4742 17.4950 18.3462 0.0000 0.0000 0.0000 -15.1692 -10.9323 -5.6757 7.5700 15.7937 50.9987 -4.8129 -38.5452 -1.2470 0.0503 1.4472 3.9802 0.0000 0.0000 0.0000 -15.4108 21.0460 -83.5965 -19.7615 -19.9986 89.3028 1.2124 22.6833 -4.8219 -0.3066 3.5601 -9.8422 -7.7969 4.5596 22.3374 0.9234 4.3077 5.9668 4.2470 2.1833 -6.4957 -1.6045 -6.0817 -25.2157 4.6802 -9.6584 29.1434 0.2814 -3.5446 14.6236 0.0000 -0.0000 0.0000 -55.9685 -31.8411 29.2421 48.6518 -52.4371 -25.1014 -0.0000 0.0000 -28.9807 33.0684 7.4053 4.7970 -7.1250 0.0000 -0.0000 5.4200 38.7426 -0.8384 0.0000 -0.0000 0.0000 40.2361 38.4958 21.0692 -22.5535 33.5970 -6.8896 0.0000 -0.0000 -0.7143 -35.9799 -10.7462 7.7093 7.1250 -0.0000 -0.0000 -8.1140 -43.0330 -0.3967
6.4538 15.6354 -9.5360 5.4341 18.4050 18.5808 0.0000 0.0000 0.0000 -14.5562 -10.7049 -3.7594 7.0080 15.3386 48.9046 -4.6651 -38.2378 -1.7272 0.0388 1.2715 3.4963 0.0000 0.0000 0.0000 -15.0651 20.1670 -84.3691 -20.0614 -19.9999 90.1794 1.0822 22.4574 -6.0610 -0.4685 4.3902 -12.1772 -7.6141 4.2770 22.0174 0.9621 4.0015 5.5450 4.2773 2.0543 -6.7478 -1.5465 -6.0218 -25.1101 4.6229 -9.5663 29.0017 0.2709 -3.5165 14.5269 0.0000 -0.0000 0.0000 -53.0063 -34.2028 27.7235 51.9074 -53.7364 -27.7048 -0.0000 0.0000 -28.6926 33.1038 7.2289 4.6902 -7.1250 0.0000 -0.0000 5.4476 38.5370 -0.8702 0.0000 -0.0000 0.0000 38.6946 37.3601 22.3659 -23.4808 34.6104 -7.4096 0.0000 -0.0000 -1.5727 -36.0393 -10.5916 7.6174 7.1250 -0.0000 -0.0000 -8.1633 -42.8540 -0.4354
6.4314 15.5839 -9.1528 5.2084 19.5552 18.8970 0.0000 0.0000 0.0000 -13.6225 -10.7355 -1.8023 6.3779 14.7848 46.4800 -4.5711 -37.5781 -0.8839 0.0850 1.8801 5.1743 0.0000 0.0000 0.0000 -14.4689 19.2158 -84.9163 -20.2169 -19.9989 90.6343 1.0333 22.4591 -6.6284 -0.4913 4.4944 -12.4718 -7.0924 3.9480 21.5665 1.0070 3.7169 5.0686 4.1180 1.9307 -6.9761 -1.0296 -5.9385 -24.9932 4.1910 -9.4988 28.8575 0.0311 -3.5032 14.3744 0.0000 0.0000 0.0000 -49.7116 -36.5539 26.2222 55.2640 -54.9098 -30.4319 -0.0000 0.0000 -28.7281 33.5087 7.3063 4.8131 -7.1250 0.0000 -0.0000 5.8010 38.6610 -0.9094 0.0000 0.0000 0.0000 37.2298 36.0585 23.5337 -24.3700 35.5531 -7.9207 0.0000 -0.0000 -2.0608 -36.5086 -10.4572 7.6517 7.1250 -0.0000 -0.0000 -8.5907 -42.7502 -0.4807
